<svg xmlns="http://www.w3.org/2000/svg" width="66" height="16" viewBox="0 0 66 16">
    <g fill="none" fill-rule="evenodd">
        <path fill="#FFF" fill-opacity=".01" d="M0 0h66v16H0z"/>
        <g transform="translate(.574 1.714)">
            <ellipse cx="6.887" cy="6.857" fill="#00AED6" fill-rule="nonzero" rx="6.887" ry="6.857"/>
            <path fill="#FFF" d="M10.476 4.53a1.68 1.68 0 0 0-1.384-1.52 15.631 15.631 0 0 0-2.205-.153c-.74-.001-1.48.05-2.213.152-.754.135-1.32.76-1.376 1.52-.224 1.849-.224 4.353.315 5.85a.223.223 0 0 0 .364.095c.299-.288.572-.592.838-.896a.21.21 0 0 1 .356.064c.156.374.33.74.522 1.096a.215.215 0 0 0 .365.032c.24-.328.473-.664.68-1a.164.164 0 0 1 .298 0c.207.336.431.672.68 1a.215.215 0 0 0 .365-.032c.192-.356.366-.722.522-1.096a.21.21 0 0 1 .356-.064c.266.304.54.608.838.896a.224.224 0 0 0 .364-.096c.54-1.496.54-4.008.315-5.849zM7.317 6.841H4.735a.272.272 0 1 1 0-.541h2.582a.272.272 0 1 1 0 .541zM9.04 5.43H4.735a.286.286 0 1 1 0-.572h4.304a.286.286 0 1 1 0 .572z"/>
        </g>
        <g fill="#000" fill-rule="nonzero">
            <path d="M19.758 11.959a2.965 2.965 0 0 0 2.573 1.252c1.2 0 2.082-.763 2.082-1.8v-.547h-.03a3.276 3.276 0 0 1-2.471.922 4.01 4.01 0 0 1-3.552-1.94 3.973 3.973 0 0 1-.037-4.032 4.01 4.01 0 0 1 3.516-2.003 3.45 3.45 0 0 1 2.545.892h.029v-.748h2.053v7.428c0 2.159-1.72 3.656-4.135 3.656a4.949 4.949 0 0 1-4.106-1.814l1.533-1.266zm4.568-4.621c0-.864-.983-1.656-2.081-1.656-1.389 0-2.314.835-2.314 2.088a2.012 2.012 0 0 0 .612 1.588 2.03 2.03 0 0 0 1.614.557c1.2 0 2.17-.75 2.17-1.685v-.892zM31.844 3.739c2.502 0 4.324 1.77 4.324 4.03 0 2.26-1.822 4.031-4.324 4.031a4.062 4.062 0 0 1-3.733-1.935 4.024 4.024 0 0 1 0-4.191 4.062 4.062 0 0 1 3.733-1.935zm0 1.87a2.164 2.164 0 0 0-2.154 2.17 2.164 2.164 0 0 0 2.174 2.15 2.164 2.164 0 0 0 2.164-2.16 2.062 2.062 0 0 0-.61-1.561 2.08 2.08 0 0 0-1.574-.598zM39.305 10.836v.748h-1.98V1.075h2.14V4.56h.029a3.668 3.668 0 0 1 2.486-.82 3.999 3.999 0 0 1 2.909 1.147c.772.76 1.2 1.802 1.183 2.884a3.92 3.92 0 0 1-1.188 2.92 3.955 3.955 0 0 1-2.961 1.11 3.389 3.389 0 0 1-2.589-.964h-.029zm2.343-5.226c-1.171 0-2.184.749-2.184 1.656v.964c0 .936.969 1.685 2.184 1.685 1.388 0 2.284-.836 2.284-2.145a2.114 2.114 0 0 0-.662-1.584 2.133 2.133 0 0 0-1.622-.576zM47.156.571h2.213v2.131h-2.213V.572zm.044 3.384h2.14v7.63H47.2v-7.63zM50.771 1.075h2.14v10.51h-2.14zM54.343 1.075h2.14v10.51h-2.14zM59.49 8.633c.304.98 1.084 1.469 2.312 1.469 1.114 0 1.75-.245 1.75-.663 0-.446-.463-.648-1.894-.864-2.805-.431-3.802-1.108-3.802-2.476 0-1.41 1.416-2.36 3.527-2.36 1.924 0 3.673.979 4.078 2.303l-1.953.59a2.174 2.174 0 0 0-2.138-1.195c-.883 0-1.461.26-1.461.662 0 .404.405.548 2.096.836 2.588.403 3.615 1.108 3.615 2.49 0 1.425-1.533 2.375-3.831 2.375a5.284 5.284 0 0 1-2.863-.734 3.02 3.02 0 0 1-1.446-1.958l2.01-.475z"/>
        </g>
    </g>
</svg>
