<svg xmlns="http://www.w3.org/2000/svg" width="59" height="16" viewBox="0 0 59 16">
    <g fill="none" fill-rule="evenodd">
        <path fill="#FFF" fill-opacity=".01" d="M0 0h59v16H0z"/>
        <g fill-rule="nonzero" transform="translate(.344 1.143)">
            <ellipse cx="6.874" cy="6.857" fill="#FFF" rx="6.416" ry="6.4"/>
            <path fill="#93328E" d="M6.874 0c3.78 0 6.874 3.086 6.874 6.857 0 3.772-3.094 6.857-6.874 6.857S0 10.63 0 6.857C0 3.086 3.093 0 6.874 0zm0 .857c-3.323 0-6.015 2.686-6.015 6s2.692 6 6.015 6c3.322 0 6.014-2.686 6.014-6s-2.692-6-6.014-6zm2.176 6.4c.23.286.573.514.974.572 0 .685 0 1.371-.057 1.657a1.397 1.397 0 0 1-1.146 1.257c-1.203.228-2.52.286-3.723 0-.63-.114-1.088-.629-1.203-1.257-.057-.286-.114-.972-.114-1.657.305 0 .656-.181.89-.422l.083-.093.115.115c.076.038.127.076.187.114l.1.057v1.086c0 .147.084.252.216.279l.07.006H8.42c.148 0 .253-.084.28-.215l.007-.07V7.543c.114-.057.229-.114.286-.229l.057-.057zm-2.176 2a.635.635 0 0 0-.63.629c0 .343.286.628.63.628.343 0 .687-.285.63-.628a.635.635 0 0 0-.63-.629zm.859-6.343l1.375.172c.515.057.974.4 1.203.857.343.686.63 1.428.802 2.171v.115c.057.057.057.171.057.228v.07c-.004.137-.025.249-.172.444-.172.343-.573.572-.974.572h-.057c-.344 0-.687-.229-.86-.572 0-.057-.057-.057-.114-.057H8.96c-.044.003-.08.012-.08.057-.058.058-.115.172-.172.229l-.057.057c-.401.4-1.032.4-1.433 0-.114-.057-.171-.171-.229-.286 0-.057-.057-.057-.114-.057H6.84c-.044.003-.08.012-.08.057-.058.115-.115.229-.23.286-.229.172-.458.286-.745.286-.229 0-.515-.114-.687-.286l-.133-.134a.777.777 0 0 1-.153-.209c0-.057-.058-.057-.115-.057h-.034c-.044.002-.08.012-.08.057-.172.343-.459.572-.86.572h-.057l-.136-.009c-.4-.05-.74-.317-.895-.677-.057-.114-.057-.229-.057-.343l.015-.072c.016-.055.042-.118.042-.156v-.115a9.902 9.902 0 0 1 .802-2.171c.229-.457.63-.8 1.146-.857a6.512 6.512 0 0 1 1.432-.172z"/>
        </g>
        <path fill="#000" fill-rule="nonzero" d="M24.23 4.171h.057V3.43h2.063v7.428c0 2.172-1.719 3.657-4.125 3.657-1.604.057-3.093-.571-4.124-1.828l1.547-1.257c.572.857 1.546 1.314 2.577 1.257 1.203 0 2.062-.743 2.062-1.772v-.571h-.057a3.238 3.238 0 0 1-2.463.914c-2.234.057-4.067-1.657-4.124-3.886a3.981 3.981 0 0 1 3.895-4.114h.172c.916-.057 1.833.286 2.52.914zm15.008-3.6v3.486a3.556 3.556 0 0 1 2.463-.8 3.968 3.968 0 0 1 4.067 3.886v.171c.057 2.172-1.661 4-3.838 4.057h-.286c-.86 0-1.776-.4-2.52-1.028v.743h-2.006V.57h2.12zM31.677 3.2c2.52 0 4.296 1.771 4.296 4.057 0 2.286-1.833 4.057-4.296 4.057-2.234.172-4.182-1.543-4.296-3.771-.172-2.229 1.546-4.172 3.78-4.286.172-.057.344-.057.516-.057zm17.47.229v7.657h-2.119V3.429h2.12zm9.452 0v1.657l-5.155 4.171h5.27v1.772h-8.42v-1.6h-.058l5.155-4.172V5.2h-4.983V3.429h8.191zM22.111 5.143c-1.375 0-2.292.857-2.292 2.114a2.077 2.077 0 0 0 1.89 2.172h.344c1.203 0 2.177-.743 2.177-1.658l-.057-.971c0-.857-.974-1.657-2.062-1.657zm9.795-.057h-.23A2.173 2.173 0 0 0 29.5 7.257c0 1.2.974 2.172 2.177 2.172a2.173 2.173 0 0 0 2.176-2.172c.058-1.143-.859-2.114-1.947-2.171zm9.795-.057c-.115.057-.172.057-.23.057-1.145 0-2.176.743-2.176 1.657v.971c0 .915.974 1.657 2.177 1.657 1.375 0 2.291-.857 2.291-2.171a2.19 2.19 0 0 0-2.062-2.171zM49.205.057v2.114H46.97V.057h2.234z"/>
    </g>
</svg>
