<svg xmlns="http://www.w3.org/2000/svg" width="75" height="16" viewBox="0 0 75 16">
    <g fill="none" fill-rule="evenodd">
        <path fill="#FFF" fill-opacity=".01" d="M0 0h75v16H0z"/>
        <g fill-rule="nonzero" transform="translate(0 1.714)">
            <ellipse cx="6.818" cy="6.857" fill="#F06400" rx="6.818" ry="6.857"/>
            <path fill="#FFF" d="M8.878 5.515a2.936 2.936 0 0 0-1.33-.728 16.65 16.65 0 0 0-.144-1.707.59.59 0 0 0-.578-.509h-.01a.59.59 0 0 0-.577.51 16.595 16.595 0 0 0-.142 1.703c-.502.121-.964.373-1.338.73a10.7 10.7 0 0 0 4.119 0zM9.348 6a10.77 10.77 0 0 1-5.06 0C3.1 7.6 3.055 9.717 3.164 9.708c.392.205.819.336 1.258.387a7.203 7.203 0 0 1 .324-1.71c.057.604.15 1.204.277 1.797 1.98.228 4.524.086 5.45-.474.108.009.063-2.108-1.125-3.708z"/>
        </g>
        <g fill="#000" fill-rule="nonzero">
            <path d="M19.018 11.987a2.926 2.926 0 0 0 2.548 1.252c1.188 0 2.061-.763 2.061-1.8v-.547h-.029c-.65.64-1.539.974-2.447.922a3.96 3.96 0 0 1-3.517-1.94 4.008 4.008 0 0 1-.036-4.033 3.961 3.961 0 0 1 3.481-2.002 3.396 3.396 0 0 1 2.52.892h.028v-.748h2.033v7.428c0 2.159-1.704 3.656-4.094 3.656a4.88 4.88 0 0 1-4.065-1.814l1.517-1.266zm4.523-4.621c0-.864-.973-1.656-2.06-1.656-1.375 0-2.291.835-2.291 2.087-.04.594.181 1.175.606 1.589.425.413 1.01.617 1.598.557 1.188 0 2.147-.75 2.147-1.685v-.892zM30.985 3.767c2.476 0 4.28 1.77 4.28 4.03 0 2.26-1.804 4.031-4.28 4.031a4.01 4.01 0 0 1-3.697-1.935 4.06 4.06 0 0 1 0-4.191 4.01 4.01 0 0 1 3.697-1.935zm0 1.87a2.153 2.153 0 0 0-2.133 2.17 2.153 2.153 0 0 0 2.152 2.15 2.153 2.153 0 0 0 2.143-2.16 2.073 2.073 0 0 0-.605-1.562 2.049 2.049 0 0 0-1.557-.597zM40.304 3.767a4.287 4.287 0 0 1 2.504.734 3.386 3.386 0 0 1 1.389 1.943l-1.976.576a1.907 1.907 0 0 0-1.917-1.382 2.155 2.155 0 0 0-2.075 2.16c0 1.164.917 2.119 2.075 2.158a1.867 1.867 0 0 0 1.917-1.381l1.976.576a3.387 3.387 0 0 1-1.389 1.943c-.739.5-1.614.756-2.504.734a4.006 4.006 0 0 1-3.626-1.96 4.055 4.055 0 0 1 0-4.14 4.006 4.006 0 0 1 3.626-1.961zM45.242 1.103h2.119v10.51h-2.119zM52.613 3.767a3.914 3.914 0 0 1 2.961 1.137 3.96 3.96 0 0 1 1.162 2.965v.605H50.58c.072.993.888 1.626 2.148 1.626a3.014 3.014 0 0 0 2.333-1.137l1.317 1.325a4.628 4.628 0 0 1-3.636 1.54c-2.648 0-4.251-1.598-4.251-4.016a3.971 3.971 0 0 1 1.187-2.924 3.925 3.925 0 0 1 2.935-1.121zm2.061 3.21c-.1-.907-.887-1.483-2.018-1.483-1.145 0-1.932.576-2.047 1.483h4.065zM60.73 7.063c1.388-.187 1.803-.388 1.803-.777 0-.504-.53-.806-1.345-.806a1.79 1.79 0 0 0-1.89 1.367l-2.004-.417c.287-1.555 1.875-2.663 3.837-2.663 2.218 0 3.592 1.137 3.592 2.994v4.851H62.82v-.835h-.03a3.123 3.123 0 0 1-2.562 1.051c-1.674 0-2.833-.921-2.833-2.274 0-1.426.944-2.16 3.334-2.49zm1.975.806h-.029c-.186.274-.587.432-1.617.62-1.246.23-1.689.474-1.689.92 0 .462.372.663 1.174.663 1.216 0 2.16-.561 2.16-1.296V7.87zM66.083 3.983h2.047v.72h.028a3.731 3.731 0 0 1 2.562-.936c2.148 0 3.636 1.425 3.636 3.498v4.347h-2.119V7.538c0-1.166-.758-1.871-1.974-1.871a1.87 1.87 0 0 0-1.442.477 1.893 1.893 0 0 0-.62 1.394v4.074h-2.118v-7.63z"/>
        </g>
    </g>
</svg>
