<svg xmlns="http://www.w3.org/2000/svg" width="100" height="15" viewBox="0 0 100 15">
    <g fill="none" fill-rule="evenodd">
        <path fill="#000" fill-rule="nonzero" d="M17.49 13.4l1.5-1.24c.566.813 1.51 1.277 2.5 1.23.501.036.996-.132 1.372-.465.376-.333.602-.803.628-1.305v-.54c-.638.63-1.515.958-2.41.9-1.024.038-2.02-.333-2.771-1.03-.75-.699-1.193-1.666-1.229-2.69-.01-.07-.01-.14 0-.21-.016-1.016.372-1.996 1.08-2.726.706-.73 1.674-1.148 2.69-1.164h.18c.898-.05 1.78.26 2.45.86V4.3h2v7.29c0 2.12-1.67 3.59-4 3.59-1.538.078-3.02-.583-3.99-1.78zm6-4.93v-.85c-.148-.976-1.015-1.678-2-1.62-.575-.078-1.156.097-1.592.481-.436.384-.683.938-.678 1.519-.063 1.09.76 2.03 1.85 2.11h.33c1.025.107 1.95-.619 2.09-1.64zM26.59 8.05c-.094-1.729.875-3.34 2.446-4.068 1.57-.728 3.426-.425 4.684.765s1.664 3.025 1.025 4.634c-.639 1.61-2.194 2.666-3.925 2.669-1.1.063-2.178-.33-2.978-1.087-.801-.757-1.254-1.811-1.252-2.913zm6.254-.31c.01-1.176-.934-2.139-2.11-2.15-1.177-.011-2.14.934-2.15 2.11-.011 1.176.933 2.139 2.11 2.15.539.038 1.07-.143 1.473-.503s.644-.867.667-1.407v-.2h.01zM36.12 1h2.16v2.07h-2.16V1zm0 3.32h2.09v7.47h-2.09V4.32zM39.66 4.3h2v.72c.7-.61 1.602-.939 2.53-.92.947-.069 1.878.268 2.563.926.685.658 1.058 1.575 1.027 2.524v4.27h-2.09v-4c.03-.525-.178-1.035-.566-1.39-.388-.354-.914-.516-1.434-.44-.513-.045-1.022.128-1.402.476-.38.347-.597.839-.598 1.354v4h-2.07l.04-7.52zM47.87 4.3L50.17 4.3 52.49 9.36 52.49 9.36 54.83 4.3 57.13 4.3 53.4 11.77 51.49 11.77zM57.04 8.06c.017-2.248 1.852-4.057 4.1-4.04 2.248.017 4.057 1.852 4.04 4.1v.57H59.1c.08 1 .86 1.6 2.12 1.6.895-.011 1.739-.422 2.3-1.12l1.3 1.3c-.914 1.006-2.233 1.546-3.59 1.47-2.62.06-4.19-1.51-4.19-3.88zm6.1-.82c-.163-.947-1.049-1.593-2-1.46-.945-.107-1.814.528-2 1.46h4zM65.72 9.36l2-.47c.303.971 1.261 1.584 2.27 1.45 1.08 0 1.72-.25 1.72-.65s-.47-.64-1.85-.85c-2.72-.42-3.71-1.1-3.71-2.44 0-1.34 1.37-2.3 3.45-2.3 1.89 0 3.57 1 4 2.27l-1.91.57c-.399-.772-1.224-1.227-2.09-1.15-.88 0-1.43.26-1.43.65s.41.58 2.05.83c2.5.39 3.53 1.07 3.53 2.44 0 1.37-1.48 2.33-3.75 2.33s-3.91-1.1-4.28-2.68zM77.72 6.08v3.17c0 .46.16.6.77.6h1.37v1.94h-1.58c-1.91 0-2.65-.77-2.65-2.41v-3.3h-1.76V4.3h1.76V2.42h2.09V4.3h2.42v1.78h-2.42zM80.67 9.77c0-1.38.91-2.12 3.29-2.45 1.4-.19 1.78-.39 1.78-.76s-.52-.79-1.33-.79c-.862-.061-1.645.503-1.86 1.34l-2-.41c.3-1.55 1.84-2.61 3.79-2.61 2.19 0 3.54 1.12 3.54 2.94v4.76H86v-.85c-.643.707-1.577 1.076-2.53 1-1.65.06-2.8-.84-2.8-2.17zm5.24-.76v-.89c-.18.27-.58.42-1.6.61-1.23.22-1.67.46-1.67.9s.37.65 1.15.65c1.2 0 2.11-.55 2.11-1.27h.01zM88.8 9.36l2-.47c.299.97 1.254 1.583 2.26 1.45 1.09 0 1.72-.25 1.72-.65s-.48-.64-1.85-.85c-2.73-.42-3.72-1.1-3.72-2.44 0-1.34 1.37-2.3 3.45-2.3 1.89 0 3.57 1 4 2.27l-1.91.57c-.393-.772-1.217-1.228-2.08-1.15-.88 0-1.43.26-1.43.65s.41.58 2.05.83c2.5.39 3.53 1.07 3.53 2.44 0 1.37-1.49 2.33-3.74 2.33s-3.91-1.1-4.28-2.68zM97.67 1h2.17v2.07h-2.17V1zm0 3.32h2.09v7.47h-2.09V4.32z" transform="translate(0 -1)"/>
        <path fill="#03ACD4" fill-rule="nonzero" d="M6.86 1.94c-2.775 0-5.276 1.671-6.338 4.235C-.54 8.738.047 11.689 2.01 13.65c1.962 1.962 4.913 2.549 7.476 1.487 2.564-1.062 4.235-3.563 4.235-6.338 0-3.789-3.071-6.86-6.86-6.86zm-2 4.82c.001-.533.226-1.04.62-1.4.448-.06.899-.09 1.35-.09.542.008 1.083.052 1.62.13.367.358.576.847.58 1.36v.83H4.91l-.05-.83zm2.51 2.33c0 .231-.14.44-.354.528-.214.087-.46.036-.623-.129-.162-.165-.208-.412-.117-.624.092-.213.303-.35.534-.345.15 0 .294.06.4.168.105.107.163.252.16.402zm-4.54-2c.095-.817.719-1.473 1.53-1.61h.31c-.237.388-.362.835-.36 1.29v.83H2.84l-.01-.51zm7.34 4.49c-.113.331-.403.571-.75.62-1.742.24-3.508.24-5.25 0-.343-.052-.628-.291-.74-.62-.4-1.08-.62-2.219-.65-3.37h2.91v.86c-.056.412.123.82.464 1.058.34.238.785.266 1.152.073.368-.193.597-.576.594-.991.01-.046.01-.094 0-.14v-.83h2.92c-.02 1.148-.222 2.286-.6 3.37l-.05-.03zm-.59-4v-.83c.004-.435-.11-.864-.33-1.24.803.143 1.419.791 1.52 1.6v.46l-1.19.01z" transform="translate(0 -1)"/>
        <path fill="#FFF" fill-rule="nonzero" d="M4.73 5.46c-.237.388-.362.835-.36 1.29v.83H2.83v-.45c.098-.816.72-1.47 1.53-1.61l.37-.06zM9.07 6.75v.83H4.9v-.83c.001-.533.226-1.04.62-1.4.448-.06.899-.09 1.35-.09.546.008 1.09.052 1.63.13.356.364.56.85.57 1.36zM9.62 7.58v-.83c.004-.435-.11-.864-.33-1.24.803.143 1.419.791 1.52 1.6v.46l-1.19.01zM10.87 8.24c-.039 1.151-.262 2.29-.66 3.37-.113.331-.403.571-.75.62-1.742.24-3.508.24-5.25 0-.343-.052-.628-.291-.74-.62-.4-1.08-.62-2.219-.65-3.37h2.91v.86c-.056.412.123.82.464 1.058.34.238.785.266 1.152.073.368-.193.597-.576.594-.991.01-.046.01-.094 0-.14v-.86h2.93z" transform="translate(0 -1)"/>
        <path fill="#FFF" fill-rule="nonzero" d="M7.41 9.08c0 .231-.14.44-.354.528-.214.087-.46.036-.623-.129-.162-.165-.208-.412-.117-.624.092-.213.303-.35.534-.345.15 0 .294.06.4.168.105.107.163.252.16.402z" transform="translate(0 -1)"/>
        <path d="M0 0H100V16H0z" transform="translate(0 -1)"/>
    </g>
</svg>
