<svg xmlns="http://www.w3.org/2000/svg" width="59" height="16" viewBox="0 0 104 28">
    <g fill="none" fill-rule="evenodd">
        <path fill="#F06400" fill-rule="nonzero" d="M24 15c0 4.8-2.9 9.1-7.4 10.9-.2.1-.5.2-.8.2-.8 0-1.5-.5-1.9-1.2-.4-1 0-2.2 1-2.6 4.1-1.7 6-6.4 4.3-10.5-1.7-4.1-6.4-6-10.5-4.3-4.1 1.7-6 6.4-4.3 10.5.8 1.9 2.4 3.5 4.3 4.3.7.3 1.2 1 1.2 1.8 0 .7-.4 1.3-.9 1.6-.5.4-1.2.5-1.8.2-6-2.6-8.8-9.6-6.2-15.7 2.6-6 9.6-8.8 15.7-6.2 4.5 2 7.3 6.3 7.3 11z"/>
        <path fill="#F06400" d="M17.8 14.3c-1.6-1.7-3.4-3.2-5.3-4.5-.3-.2-.7-.2-1 0-1.9 1.3-3.7 2.9-5.3 4.5-.3.3-.3.8 0 1.1.1.1.3.2.5.2l1.1.1c0 1.2.1 2.3.5 3.4.3.8.9 1.3 1.7 1.4 1.4.2 2.7.2 4.1 0 .8-.1 1.4-.7 1.7-1.4.4-1.1.5-2.2.5-3.4l1.1-.1c.4 0 .7-.4.7-.9-.1-.1-.2-.3-.3-.4z"/>
        <path fill="#000" fill-rule="nonzero" d="M59.4 13.6c0-2.1-1.7-3.8-3.8-3.8-2.1 0-3.8 1.7-3.8 3.8 0 2.1 1.7 3.8 3.8 3.8 2 .1 3.7-1.4 3.8-3.5v-.3m-11.4 0c0-4 3.2-7.1 7.6-7.1 4.4 0 7.6 3.1 7.6 7.1 0 4-3.1 7.1-7.6 7.1S48 17.6 48 13.6M41.9 14.3c0 1.7-1.7 3-3.8 3-2 .2-3.7-1.2-3.9-3.2v-.6c0-2.2 1.6-3.7 4-3.7 2 0 3.7 1.4 3.7 2.9v1.6zm.2-7.8V8a6.1 6.1 0 0 0-4.5-1.6c-3.8-.1-7 2.9-7.1 6.8v.3c0 3.9 3.1 7.1 7 7.1h.2c1.6.1 3.2-.5 4.4-1.6v1.4c0 1.8-1.6 3.2-3.7 3.2-1.6.1-3.2-.5-4.4-1.6l-2.3 2.4c1.8 1.8 4.3 2.8 6.9 2.7 4.3 0 7.2-2.9 7.2-6.7V6.5h-3.7zM65.3 1.8h3.8v18.6h-3.8zM71.5 1.6h3.9v3.6h-3.9V1.6zm.1 5.2h3.7v13.5h-3.7V6.8zM80 10h-3.2V6.8H80V5.4c0-2.4 1.6-3.8 4.4-3.8h3.5v3.2h-3c-.7 0-1.1.4-1.1 1v.9h5V10h-5v10.3H80V10zM96.2 6.5c3.8-.2 7.1 2.8 7.3 6.6V14.8H92.6c.1 1.7 1.6 2.9 3.8 2.9 1.6 0 3.1-.8 4.1-2l2.3 2.3c-1.6 1.8-4 2.8-6.4 2.7-4.7 0-7.5-2.8-7.5-7.1-.1-3.9 2.9-7.1 6.8-7.2.1 0 .3 0 .5.1zm3.6 5.6c-.2-1.6-1.6-2.6-3.6-2.6s-3.4 1-3.6 2.6h7.2z"/>
    </g>
</svg>
