<svg xmlns="http://www.w3.org/2000/svg" width="103" height="16" viewBox="0 0 103 16">
    <g fill="none" fill-rule="evenodd">
        <path fill="#FFF" fill-opacity=".01" d="M0 0h103v16H0z"/>
        <g fill="#000" fill-rule="nonzero">
            <path d="M18.826 11.371c.572.858 1.545 1.315 2.575 1.258 1.202 0 2.06-.743 2.06-1.772v-.571a3.233 3.233 0 0 1-2.46.914c-2.232.057-4.063-1.657-4.12-3.886-.058-2.228 1.659-4.057 3.89-4.114h.172c.916-.057 1.831.286 2.518.914v-.743h2.06V10.8c0 2.171-1.717 3.657-4.12 3.657-1.602.057-3.09-.571-4.12-1.828l1.545-1.258zm4.578-4.628c0-.857-.973-1.657-2.06-1.657-1.373 0-2.289.857-2.289 2.114a2.077 2.077 0 0 0 1.888 2.171h.344c1.201 0 2.174-.742 2.174-1.657l-.057-.971zM30.9 3.143c2.518 0 4.292 1.771 4.292 4.057 0 2.286-1.831 4.057-4.292 4.057a4 4 0 0 1-4.292-3.771c-.114-2.229 1.545-4.172 3.777-4.286.172-.057.343-.057.515-.057zm0 1.886a2.172 2.172 0 1 0 0 4.342A2.172 2.172 0 0 0 33.074 7.2c.058-1.143-.858-2.114-1.945-2.171H30.9zM36.336 3.371h1.888v.743h.058c1.316-1.257 3.433-1.257 4.692.057l.057.058a3.416 3.416 0 0 1 2.518-1.086c2.06 0 3.49 1.371 3.49 3.257v4.571h-2.06V6.743c.058-.914-.629-1.657-1.545-1.714-.915-.058-1.659.628-1.716 1.542V10.971h-2.003V6.743c.057-.914-.63-1.714-1.545-1.714-.916-.058-1.717.628-1.717 1.542V10.971h-2.06v-7.6h-.057zM53.56 6.457c1.373-.171 1.831-.4 1.831-.8 0-.514-.515-.8-1.373-.8-.859-.057-1.717.514-1.889 1.372l-2.002-.4c.286-1.543 1.888-2.686 3.89-2.686 2.232 0 3.606 1.143 3.606 2.971v4.857h-1.946v-.857h-.057a2.949 2.949 0 0 1-2.575 1.029c-1.66 0-2.861-.914-2.861-2.286.057-1.314.973-2.057 3.376-2.4zm2.003.8c-.23.286-.63.457-1.66.629-1.259.228-1.716.457-1.716.914s.4.686 1.201.686c1.202 0 2.175-.572 2.175-1.315v-.914zM60.541 8.057c.286.972 1.087 1.486 2.289 1.486 1.087 0 1.717-.229 1.717-.686 0-.457-.458-.628-1.889-.857-2.804-.457-3.776-1.086-3.776-2.457 0-1.429 1.43-2.343 3.49-2.343 1.946 0 3.662.971 4.063 2.286l-1.946.571a2.214 2.214 0 0 0-2.117-1.2c-.858 0-1.43.286-1.43.686 0 .4.4.571 2.117.857 2.575.4 3.605 1.086 3.605 2.514 0 1.429-1.545 2.4-3.834 2.4-1.03.057-2.003-.228-2.861-.743-.744-.4-1.259-1.142-1.43-1.942l2.002-.572zM69.067 8.057c.286.972 1.087 1.486 2.29 1.486 1.086 0 1.716-.229 1.716-.686 0-.457-.458-.628-1.889-.857-2.803-.457-3.776-1.086-3.776-2.457 0-1.429 1.43-2.343 3.49-2.343 1.946 0 3.663.971 4.063 2.286l-1.945.571a2.214 2.214 0 0 0-2.118-1.2c-.858 0-1.43.286-1.43.686 0 .4.4.571 2.117.857 2.575.4 3.605 1.086 3.605 2.514 0 1.429-1.545 2.4-3.834 2.4-1.03.057-2.003-.228-2.861-.743-.744-.4-1.259-1.142-1.43-1.942l2.002-.572zM79.31 6.457c1.373-.171 1.831-.4 1.831-.8 0-.514-.515-.8-1.373-.8-.859-.057-1.717.514-1.889 1.372l-2.002-.4c.286-1.543 1.888-2.686 3.89-2.686 2.232 0 3.606 1.143 3.606 2.971v4.857h-1.946v-.857h-.057a2.949 2.949 0 0 1-2.575 1.029c-1.66 0-2.861-.914-2.861-2.286 0-1.314.973-2.057 3.376-2.4zm2.003.8c-.23.286-.63.457-1.66.629-1.259.228-1.716.457-1.716.914s.4.686 1.201.686c1.202 0 2.175-.572 2.175-1.315v-.914zM86.348 11.371c.573.858 1.545 1.315 2.575 1.258 1.202 0 2.06-.743 2.06-1.772v-.571a3.233 3.233 0 0 1-2.46.914c-2.232.057-4.063-1.657-4.12-3.886-.057-2.228 1.66-4.057 3.89-4.114h.173c.915-.057 1.83.286 2.517.914h.058v-.743h2.06V10.8c0 2.171-1.717 3.657-4.12 3.657-1.603.057-3.09-.571-4.12-1.828l1.487-1.258zm4.578-4.628c0-.857-.973-1.657-2.06-1.657-1.373 0-2.289.857-2.289 2.114a2.077 2.077 0 0 0 1.889 2.171h.343c1.202 0 2.174-.742 2.174-1.657l-.057-.971zM98.25 3.143a3.97 3.97 0 0 1 4.178 3.771v.972h-6.18c.057.971.915 1.6 2.174 1.6.916 0 1.774-.4 2.346-1.143l1.316 1.314a4.689 4.689 0 0 1-3.662 1.543c-2.69 0-4.291-1.6-4.291-4-.058-2.171 1.659-4 3.89-4.057h.23zm2.06 3.257c-.114-.914-.915-1.486-2.06-1.486-1.144 0-1.945.572-2.06 1.486h4.12z"/>
        </g>
        <g fill-rule="nonzero" transform="translate(0 1.143)">
            <ellipse cx="6.867" cy="6.857" fill="#F06400" rx="6.867" ry="6.857"/>
            <ellipse cx="7.096" cy="3.429" fill="#FFF" rx="1.03" ry="1.029"/>
            <path fill="#FFF" d="M8.183 7.257c.286 0 .458-.228.286-.457-.458-.686-1.43-2.057-2.175-2.286a1.835 1.835 0 0 0-1.716.172c-.458.285-1.03.857-1.545 1.828-.115.286.114.686.572.686h2.174c.172 0 .401-.114.458-.229l.344-.571c.171.286.4.514.572.686.057.057.114.114.229.114h.8v.057zM9.957 10.229L9.213 8.97c-.286-.514-.859-.8-1.488-.8l-4.463-.057c-.744 0-.973 1.257-1.03 1.657v.058h5.436l.744.628c.171.114.4.229.63.229h.571c.172 0 .344-.115.344-.286v-.171z"/>
            <ellipse cx="10.243" cy="7.714" fill="#FFF" rx="1.03" ry="1.029"/>
        </g>
    </g>
</svg>
