<svg xmlns="http://www.w3.org/2000/svg" width="67" height="16" viewBox="0 0 67 16">
    <g fill="none" fill-rule="evenodd">
        <path fill="#FFF" fill-opacity=".01" d="M0 0h67v16H0z"/>
        <g fill="#000" fill-rule="nonzero">
            <path d="M18.985 11.754a2.924 2.924 0 0 0 2.546 1.252c1.188 0 2.06-.762 2.06-1.8v-.546h-.029c-.65.64-1.538.974-2.445.921a3.957 3.957 0 0 1-3.515-1.939 4.01 4.01 0 0 1-.036-4.033 3.958 3.958 0 0 1 3.48-2.003 3.393 3.393 0 0 1 2.516.893h.03V3.75h2.03v7.428c0 2.16-1.702 3.657-4.09 3.657a4.875 4.875 0 0 1-4.063-1.814l1.516-1.267zm4.52-4.62c0-.865-.972-1.657-2.059-1.657-1.374 0-2.289.836-2.289 2.088-.04.593.181 1.175.606 1.588.425.414 1.01.618 1.597.557 1.187 0 2.145-.749 2.145-1.685v-.892zM30.944 3.534c2.474 0 4.277 1.77 4.277 4.031 0 2.26-1.803 4.03-4.277 4.03a4.007 4.007 0 0 1-3.695-1.934 4.061 4.061 0 0 1 0-4.192 4.007 4.007 0 0 1 3.695-1.935zm0 1.871a2.153 2.153 0 0 0-2.131 2.17 2.152 2.152 0 0 0 2.15 2.15 2.153 2.153 0 0 0 2.141-2.16 2.074 2.074 0 0 0-.604-1.562 2.047 2.047 0 0 0-1.556-.598zM36.366 3.75h2.03v.677h.03a3.363 3.363 0 0 1 2.445-.893c2.181.04 3.93 1.829 3.934 4.024.004 2.195-1.738 3.99-3.92 4.038a3.655 3.655 0 0 1-2.374-.807h-.028v3.83h-2.117V3.75zm4.177 1.67c-1.117 0-2.06.792-2.06 1.656v.964c0 .921.915 1.684 2.073 1.684a2.145 2.145 0 0 0 2.132-2.159 2.145 2.145 0 0 0-2.145-2.145zM45.92.87h2.118v10.51H45.92zM52.6 6.83c1.388-.186 1.803-.388 1.803-.777 0-.504-.53-.806-1.345-.806a1.789 1.789 0 0 0-1.888 1.368l-2.002-.418C49.454 4.643 51.04 3.534 53 3.534c2.217 0 3.59 1.138 3.59 2.994v4.852H54.69v-.835h-.029a3.12 3.12 0 0 1-2.56 1.05c-1.674 0-2.832-.92-2.832-2.274 0-1.425.944-2.159 3.332-2.49zm1.974.807h-.028c-.186.273-.586.432-1.616.619-1.245.23-1.688.475-1.688.921 0 .461.371.663 1.173.663 1.216 0 2.16-.562 2.16-1.296v-.907zM60.425 10.962L56.92 3.75h2.331l2.303 4.98h.029l2.274-4.98h2.346l-5.25 10.869h-2.331z"/>
        </g>
        <g fill-rule="nonzero" transform="translate(0 1.483)">
            <ellipse cx="6.814" cy="6.857" fill="#DF1995" rx="6.814" ry="6.857"/>
            <path fill="#FFF" d="M5.824 10.329c-.304.145-.659.13-.95-.039a1.03 1.03 0 0 1-.508-.808 31.475 31.475 0 0 1 0-5.25 1.03 1.03 0 0 1 .508-.808c.291-.169.646-.183.95-.038a31.037 31.037 0 0 1 4.52 2.624 1.031 1.031 0 0 1 0 1.694 31.07 31.07 0 0 1-4.52 2.625z"/>
        </g>
    </g>
</svg>
