<svg xmlns="http://www.w3.org/2000/svg" width="84" height="16" viewBox="0 0 84 16">
    <g fill="none" fill-rule="evenodd">
        <path fill="#FFF" fill-opacity=".01" d="M0 0h84v16H0z"/>
        <g fill-rule="nonzero" transform="translate(.004 1.143)">
            <circle cx="6.857" cy="6.857" r="6.857" fill="#00AED6"/>
            <path fill="#FFF" d="M11.275 4.735a1.351 1.351 0 0 0-1.025-.697l-.714-.088a4.741 4.741 0 0 0-.098-.455 9.646 9.646 0 0 0-5.162 0c-.04.148-.072.3-.098.455l-.714.088a1.35 1.35 0 0 0-1.024.697 1.282 1.282 0 0 0-.008 1.202c.536 1.024 1.671 2.698 3.501 3.15a.57.57 0 0 1 .436.55c-.02.001-1.59.192-1.59.747v.606c1.378.204 2.779.204 4.157 0v-.606c0-.555-1.57-.746-1.59-.746a.57.57 0 0 1 .435-.551c1.83-.452 2.965-2.126 3.502-3.15a1.282 1.282 0 0 0-.008-1.202zM3.298 5.5A.335.335 0 0 1 3.3 5.18a.371.371 0 0 1 .285-.194l.513-.064c.003.781.152 1.554.437 2.28a6.846 6.846 0 0 1-1.238-1.701zm3.56 1.07a.857.857 0 1 1 0-1.714.857.857 0 0 1 0 1.714zm3.558-1.07a6.847 6.847 0 0 1-1.238 1.702c.286-.727.434-1.5.438-2.28l.512.063a.371.371 0 0 1 .285.194c.056.1.057.22.003.32z"/>
        </g>
        <g fill="#000" fill-rule="nonzero">
            <path d="M19.113 11.414a2.949 2.949 0 0 0 2.562 1.252c1.195 0 2.073-.763 2.073-1.8v-.547h-.029a3.254 3.254 0 0 1-2.461.922 3.988 3.988 0 1 1-.072-7.975c.93-.06 1.845.262 2.533.892h.03V3.41h2.043v7.428c0 2.159-1.713 3.656-4.117 3.656a4.92 4.92 0 0 1-4.088-1.814l1.526-1.266zm4.549-4.622c0-.863-.979-1.655-2.073-1.655-1.382 0-2.303.835-2.303 2.087a2.017 2.017 0 0 0 2.217 2.145c1.195 0 2.159-.748 2.159-1.684v-.893zM31.148 3.194c2.49 0 4.305 1.77 4.305 4.03 0 2.26-1.815 4.031-4.305 4.031a4.04 4.04 0 1 1 0-8.061zm0 1.87a2.16 2.16 0 1 0 2.174 2.16 2.067 2.067 0 0 0-2.174-2.16zM36.604 3.41h2.044v.676h.03a3.398 3.398 0 0 1 2.46-.892 4.032 4.032 0 0 1 .015 8.061 3.694 3.694 0 0 1-2.39-.806h-.028v3.829h-2.13V3.41zm4.204 1.67c-1.123 0-2.073.791-2.073 1.655v.964c0 .922.921 1.684 2.087 1.684a2.152 2.152 0 0 0-.014-4.304zM50.237 3.194c2.49 0 4.304 1.77 4.304 4.03 0 2.26-1.814 4.031-4.304 4.031a4.04 4.04 0 1 1 0-8.061zm0 1.87a2.16 2.16 0 1 0 2.174 2.16 2.067 2.067 0 0 0-2.174-2.16zM55.636.026h2.202v2.13h-2.202V.027zm.043 3.384h2.13v7.63h-2.13V3.41zM59.249 3.41h2.058v.72h.029a3.766 3.766 0 0 1 2.577-.936c2.16 0 3.656 1.425 3.656 3.497v4.348h-2.13V6.965c0-1.166-.763-1.871-1.986-1.871a1.888 1.888 0 0 0-2.074 1.87v4.075h-2.13V3.41zM72.061 5.223v3.225c0 .475.158.619.778.619h1.396v1.972h-1.612c-1.915 0-2.692-.748-2.692-2.461V5.223h-1.8V3.41h1.8V1.495h2.13V3.41h2.462v1.813H72.06zM76.798 8.088c.302.979 1.08 1.468 2.303 1.468 1.109 0 1.742-.245 1.742-.662 0-.446-.46-.648-1.886-.864-2.792-.431-3.786-1.108-3.786-2.476 0-1.41 1.411-2.36 3.513-2.36 1.914 0 3.656.978 4.06 2.303l-1.944.59a2.164 2.164 0 0 0-2.13-1.195c-.879 0-1.455.26-1.455.662 0 .404.403.548 2.088.836 2.576.402 3.599 1.108 3.599 2.49 0 1.425-1.526 2.375-3.815 2.375-1 .032-1.99-.223-2.85-.734a3.022 3.022 0 0 1-1.44-1.958l2.001-.475z"/>
        </g>
    </g>
</svg>
