<svg xmlns="http://www.w3.org/2000/svg" width="76" height="16" viewBox="0 0 76 16">
    <g fill="none" fill-rule="evenodd">
        <path fill="#FFF" fill-opacity=".01" d="M0 0h76v16H0z"/>
        <g fill-rule="nonzero" transform="translate(.53 1.714)">
            <ellipse cx="6.806" cy="6.857" fill="#00AED6" rx="6.806" ry="6.857"/>
            <path fill="#FFF" d="M7.57 5.714h-.706a.057.057 0 0 1-.058-.055V4.652a.07.07 0 1 0-.135-.036l-.708 1.553a.084.084 0 0 0 .008.08.083.083 0 0 0 .071.037h.706c.031-.001.057.024.058.055v1.007a.07.07 0 1 0 .135.036l.708-1.553a.084.084 0 0 0-.008-.08.083.083 0 0 0-.072-.037z"/>
            <path fill="#FFF" d="M9.733 3.649a1.063 1.063 0 0 0-.752-.85 10.464 10.464 0 0 0-4.35 0 1.063 1.063 0 0 0-.752.85 26.796 26.796 0 0 0 0 6.416c.068.406.36.736.752.85 1.434.304 2.916.304 4.35 0 .392-.114.684-.444.752-.85a26.797 26.797 0 0 0 0-6.416zM6.806 10.57A.57.57 0 0 1 6.239 10a.57.57 0 0 1 .567-.571.57.57 0 0 1 .567.571.57.57 0 0 1-.567.571zm2.155-2.6a.597.597 0 0 1-.038.213.812.812 0 0 1-.725.583c-.928.047-1.857.047-2.784 0a.812.812 0 0 1-.725-.583.597.597 0 0 1-.038-.214 42.328 42.328 0 0 1 .051-3.508.9.9 0 0 1 .317-.623.664.664 0 0 1 .201-.133.612.612 0 0 1 .24-.067c.103-.007.213-.02.317-.02a13.13 13.13 0 0 1 1.987-.007c.13.007.259.014.388.027a.612.612 0 0 1 .24.067.664.664 0 0 1 .2.134.9.9 0 0 1 .318.623c.064 1.171.084 2.342.051 3.507z"/>
        </g>
        <g fill="#000" fill-rule="nonzero">
            <path d="M19.537 11.985a2.92 2.92 0 0 0 2.544 1.252c1.185 0 2.057-.763 2.057-1.8v-.546h-.029c-.65.64-1.536.974-2.443.92a3.952 3.952 0 0 1-3.51-1.938 4.014 4.014 0 0 1-.036-4.033 3.953 3.953 0 0 1 3.475-2.003 3.387 3.387 0 0 1 2.514.892h.03v-.748h2.028v7.428c0 2.16-1.7 3.656-4.086 3.656a4.867 4.867 0 0 1-4.058-1.813l1.514-1.267zm4.515-4.621c0-.864-.971-1.656-2.057-1.656-1.372 0-2.286.836-2.286 2.088-.04.593.18 1.174.605 1.588a1.993 1.993 0 0 0 1.595.557c1.186 0 2.143-.749 2.143-1.685v-.892zM31.483 3.765c2.472 0 4.272 1.77 4.272 4.03 0 2.26-1.8 4.031-4.272 4.031a4.001 4.001 0 0 1-3.69-1.935 4.065 4.065 0 0 1 0-4.19 4.001 4.001 0 0 1 3.69-1.936zm0 1.871a2.152 2.152 0 0 0-2.129 2.17 2.151 2.151 0 0 0 2.148 2.149 2.151 2.151 0 0 0 2.138-2.16 2.076 2.076 0 0 0-.603-1.561 2.043 2.043 0 0 0-1.554-.598zM36.898 3.981h2.03v.676h.028a3.357 3.357 0 0 1 2.443-.892c2.179.04 3.925 1.828 3.93 4.024.003 2.195-1.737 3.99-3.915 4.037-.86.02-1.7-.265-2.373-.806h-.028v3.83h-2.115V3.98zm4.173 1.67c-1.115 0-2.058.792-2.058 1.655v.965c0 .921.914 1.684 2.072 1.684a2.144 2.144 0 0 0 2.129-2.16 2.144 2.144 0 0 0-2.143-2.144zM46.314 3.981h2.115v4.045c-.06.513.116 1.024.478 1.39.362.364.87.542 1.379.481a1.832 1.832 0 0 0 1.393-.5 1.86 1.86 0 0 0 .579-1.37V3.98h2.114v7.63H52.33v-.72h-.028a3.545 3.545 0 0 1-2.558.935c-2.157 0-3.429-1.28-3.429-3.483V3.98zM55.788 1.102h2.114V11.61h-2.114zM60.874 8.66c.3.978 1.072 1.468 2.286 1.468 1.1 0 1.729-.245 1.729-.663 0-.445-.458-.647-1.872-.863-2.772-.432-3.758-1.109-3.758-2.476 0-1.411 1.4-2.36 3.486-2.36 1.9 0 3.63.978 4.03 2.302l-1.93.59a2.145 2.145 0 0 0-2.114-1.194c-.871 0-1.443.259-1.443.662s.4.547 2.072.835c2.557.403 3.572 1.108 3.572 2.49 0 1.425-1.515 2.375-3.786 2.375a5.176 5.176 0 0 1-2.83-.734 3.02 3.02 0 0 1-1.428-1.958l1.986-.474zM71.047 7.061c1.387-.187 1.8-.388 1.8-.777 0-.504-.528-.806-1.342-.806a1.787 1.787 0 0 0-1.886 1.367l-2-.417c.285-1.555 1.87-2.663 3.829-2.663 2.214 0 3.586 1.137 3.586 2.994v4.851h-1.9v-.834h-.03a3.114 3.114 0 0 1-2.557 1.05c-1.671 0-2.828-.92-2.828-2.274 0-1.425.942-2.16 3.328-2.49zm1.972.807h-.028c-.186.273-.586.432-1.615.619-1.243.23-1.686.474-1.686.92 0 .462.371.663 1.172.663 1.214 0 2.157-.561 2.157-1.295v-.907z"/>
        </g>
    </g>
</svg>
