<svg xmlns="http://www.w3.org/2000/svg" width="69" height="14" viewBox="0 0 69 14">
    <g fill="none" fill-rule="evenodd">
        <path d="M0 0H69V16H0z" transform="translate(0 -1)"/>
        <path fill="#000" fill-rule="nonzero" d="M19.05 11.34c.592.84 1.573 1.32 2.6 1.27.528.053 1.054-.115 1.453-.463.4-.349.638-.847.657-1.377v-.54h-.08c-.655.657-1.565.994-2.49.92-2.21.064-4.051-1.676-4.115-3.885-.064-2.21 1.676-4.051 3.885-4.115h.16c.945-.072 1.877.263 2.56.92V3.3h2.07v7.51c0 2.18-1.73 3.71-4.18 3.71-1.583.06-3.1-.634-4.09-1.87l1.57-1.31zm4.59-4.69c-.163-1.017-1.072-1.744-2.1-1.68-.596-.062-1.19.13-1.636.53-.446.4-.702.97-.704 1.57-.075 1.12.761 2.094 1.88 2.19h.34c1.061.108 2.02-.636 2.18-1.69v-.92h.04zM31.23 3.03c1.519-.107 2.97.643 3.761 1.943.792 1.3.792 2.934 0 4.234-.791 1.3-2.242 2.05-3.761 1.943-2.21.097-4.093-1.589-4.24-3.796-.146-2.207 1.497-4.128 3.7-4.324.179-.03.361-.03.54 0zm0 1.88c-.888-.004-1.69.528-2.031 1.347-.342.82-.155 1.764.472 2.392.628.627 1.572.814 2.392.472.819-.341 1.351-1.143 1.347-2.031.024-.554-.173-1.096-.548-1.505-.375-.409-.898-.652-1.452-.675h-.18zM38.16 7.97c.311.998 1.293 1.63 2.33 1.5 1.11 0 1.76-.23 1.76-.65 0-.42-.45-.65-1.91-.88-2.83-.43-3.83-1.11-3.83-2.49 0-1.38 1.42-2.38 3.56-2.38 2 0 3.72 1 4.1 2.34l-1.95.61c-.4-.807-1.252-1.29-2.15-1.22-.88 0-1.45.26-1.45.65s.42.53 2.1.84c2.61.42 3.64 1.11 3.64 2.53 0 1.42-1.53 2.41-3.87 2.41-1.006.033-2.002-.22-2.87-.73-.741-.435-1.267-1.16-1.45-2l1.99-.53zM45.2 3.23h2.15v4.09c-.053.447.074.897.354 1.25.28.353.688.58 1.136.63h.38c.494.039.982-.121 1.358-.444.375-.323.606-.782.642-1.276V3.23h2.14v7.73h-2.07v-.73c-.7.665-1.635 1.025-2.6 1-.972.102-1.937-.245-2.622-.942-.686-.697-1.016-1.668-.898-2.638l.03-4.42zM54.85 3.23h2v.72c.596-.598 1.416-.918 2.26-.88.43.01.856.074 1.27.19l-.46 2c-.36-.111-.734-.165-1.11-.16-1.19 0-1.88.81-1.88 2.38V11h-2.15V3.23h.07zM64.73 3.03c1.062-.065 2.105.301 2.893 1.017.787.716 1.251 1.72 1.287 2.783v1h-6.24c.07 1 .92 1.65 2.18 1.65.925.003 1.8-.422 2.37-1.15l1.34 1.32c-.95 1.036-2.304 1.61-3.71 1.57-2.68 0-4.33-1.61-4.33-4.06-.027-1.063.37-2.092 1.104-2.862.734-.769 1.743-1.214 2.806-1.238.11-.06.19-.03.3-.03zm2.07 3.22c-.11-.92-.92-1.49-2.07-1.49-.975-.134-1.882.523-2.06 1.49h4.13z" transform="translate(0 -1)"/>
        <path fill="#00AED6" fill-rule="nonzero" d="M8.59 7.58c0 .316-.254.575-.57.58h-.58v.57c0 .315-.255.57-.57.57-.313-.005-.565-.257-.57-.57v-.57h-.57c-.224.03-.444-.073-.565-.263-.121-.19-.121-.434 0-.624s.341-.293.565-.263h.57v-.57c0-.316.254-.575.57-.58.153 0 .3.061.407.17.107.11.166.257.163.41v.57h.58c.313.005.565.257.57.57z" transform="translate(0 -1)"/>
        <path fill="#00AED6" fill-rule="nonzero" d="M6.91 1C3.116 1 .04 4.076.04 7.87s3.076 6.87 6.87 6.87 6.87-3.076 6.87-6.87c0-1.822-.724-3.57-2.012-4.858C10.479 1.724 8.732 1 6.91 1zm3.61 8.27c-.263.613-.655 1.163-1.15 1.61-.651.551-1.411.96-2.23 1.2-.029.013-.061.013-.09 0h-.28-.09c-.819-.24-1.579-.649-2.23-1.2-.512-.432-.908-.986-1.15-1.61-.318-.836-.471-1.726-.45-2.62v-1c.056-.509.488-.893 1-.89.969-.004 1.903-.36 2.63-1 .123-.097.274-.15.43-.15.147 0 .29.053.4.15.73.643 1.668.999 2.64 1 .5 0 .913.39.94.89v.28c.083 1.13-.057 2.264-.41 3.34h.04z" transform="translate(0 -1)"/>
        <path fill="#FFF" fill-rule="nonzero" d="M10.85 5.89v-.24c-.027-.5-.44-.89-.94-.89-.972-.001-1.91-.357-2.64-1-.11-.097-.253-.15-.4-.15-.156 0-.307.053-.43.15-.727.64-1.661.996-2.63 1-.473.045-.85.417-.9.89v1.04c-.034.892.105 1.781.41 2.62.242.624.638 1.178 1.15 1.61.651.551 1.411.96 2.23 1.2h.37c.029.013.061.013.09 0 .819-.24 1.579-.649 2.23-1.2.495-.447.887-.997 1.15-1.61.33-1.108.436-2.27.31-3.42zM8.02 8.16h-.58v.57c0 .315-.255.57-.57.57-.313-.005-.565-.257-.57-.57v-.57h-.57c-.224.03-.444-.073-.565-.263-.121-.19-.121-.434 0-.624s.341-.293.565-.263h.57v-.57c0-.316.254-.575.57-.58.153 0 .3.061.407.17.107.11.166.257.163.41v.57h.58c.288.038.504.284.504.575s-.216.537-.504.575z" transform="translate(0 -1)"/>
    </g>
</svg>
