<svg xmlns="http://www.w3.org/2000/svg" width="55" height="16" viewBox="0 0 55 16">
    <g fill="none" fill-rule="evenodd">
        <path fill="#FFF" fill-opacity=".01" d="M0 0h55v16H0z"/>
        <g fill="#000" fill-rule="nonzero">
            <path d="M18.953 11.985a2.918 2.918 0 0 0 2.542 1.252c1.186 0 2.058-.763 2.058-1.8v-.546h-.03c-.649.64-1.535.974-2.442.92a3.95 3.95 0 0 1-3.51-1.938 4.015 4.015 0 0 1-.035-4.033 3.952 3.952 0 0 1 3.474-2.003 3.385 3.385 0 0 1 2.514.892h.029v-.748h2.028v7.428c0 2.16-1.7 3.656-4.086 3.656a4.865 4.865 0 0 1-4.056-1.813l1.514-1.267zm4.514-4.621c0-.864-.972-1.656-2.057-1.656-1.371 0-2.286.836-2.286 2.088-.04.593.181 1.174.605 1.588a1.992 1.992 0 0 0 1.595.557c1.186 0 2.143-.749 2.143-1.685v-.892zM30.895 3.765c2.471 0 4.271 1.77 4.271 4.03 0 2.26-1.8 4.031-4.271 4.031a4 4 0 0 1-3.69-1.935 4.066 4.066 0 0 1 0-4.19 4 4 0 0 1 3.69-1.936zm0 1.871a2.151 2.151 0 0 0-2.128 2.17 2.151 2.151 0 0 0 2.147 2.149 2.151 2.151 0 0 0 2.138-2.16 2.076 2.076 0 0 0-.603-1.561 2.042 2.042 0 0 0-1.554-.598zM39.28 5.795V9.02c0 .474.157.618.772.618h1.385v1.972h-1.6c-1.9 0-2.67-.748-2.67-2.461V5.795H35.38V3.98h1.785V2.066h2.114v1.915h2.443v1.814H39.28zM42.666.598h2.185v2.13h-2.185V.598zm.043 3.383h2.114v7.63h-2.114V3.98zM48.765 7.752l-3.214-3.771h2.657l1.914 2.462h.029l1.943-2.462h2.656l-3.214 3.771 3.3 3.858H52.18l-2.028-2.562h-.029l-2 2.563h-2.657z"/>
        </g>
        <g fill-rule="nonzero" transform="translate(0 1.714)">
            <ellipse cx="6.804" cy="6.857" fill="#DF1995" rx="6.804" ry="6.857"/>
            <path fill="#FFF" d="M10.968 5.079c-.068-.115-.144-.223-.218-.331a1.35 1.35 0 0 1-.65.172 1.379 1.379 0 0 1-1.203-2.04 8.433 8.433 0 0 0-.334-.225 1.76 1.76 0 0 0-1.928.133c-.218.16-.422.333-.628.502l.184.187c.1.106.1.273 0 .38l-.322.328c-.106.1-.271.1-.377 0l-.246-.248a18.118 18.118 0 0 0-2.48 2.755 1.803 1.803 0 0 0-.134 1.944c.069.116.146.225.22.334.201-.114.427-.174.656-.175a1.379 1.379 0 0 1 1.2 2.043c.11.077.222.155.329.222a1.76 1.76 0 0 0 1.928-.134 17.846 17.846 0 0 0 2.73-2.482L9.45 8.2a.28.28 0 0 1 0-.38l.325-.328a.274.274 0 0 1 .375 0l.187.188c.166-.21.34-.416.496-.633.432-.57.486-1.344.135-1.968zm-4.041.197c-.106.1-.272.1-.378 0l-.325-.328a.28.28 0 0 1 0-.38l.325-.322c.106-.1.272-.1.378 0l.322.325c.1.106.1.273 0 .38l-.322.325zm.697 1.083L7.3 6.03a.28.28 0 0 1 0-.378l.326-.327c.106-.1.271-.1.377 0l.325.327a.28.28 0 0 1 0 .378l-.328.328c-.106.1-.271.1-.377 0zm1.777.766l-.325.317c-.106.1-.272.1-.378 0l-.322-.325a.28.28 0 0 1 0-.38l.322-.328c.106-.1.272-.1.378 0l.325.336c.1.107.1.273 0 .38z"/>
        </g>
    </g>
</svg>
