<svg xmlns="http://www.w3.org/2000/svg" width="78" height="16" viewBox="0 0 78 16">
    <g fill="none" fill-rule="evenodd">
        <path fill="#FFF" fill-opacity=".01" d="M0 0h78v16H0z"/>
        <g transform="translate(.562 1.143)">
            <ellipse cx="6.783" cy="6.857" fill="#00AED6" fill-rule="nonzero" rx="6.783" ry="6.857"/>
            <path fill="#FFF" d="M9.043 7.857c0 .394.317.714.707.714h1.158c.068-.473.105-.95.111-1.428H9.75c-.39 0-.706.32-.707.714z"/>
            <path fill="#FFF" d="M9.75 9.143a1.279 1.279 0 0 1-1.272-1.286c0-.71.57-1.286 1.272-1.286h1.253a1.574 1.574 0 0 0-1.63-1.428H5.087a.284.284 0 0 1-.283-.286c0-.158.127-.286.283-.286h4.342a1.358 1.358 0 0 0-.99-1.259 10.874 10.874 0 0 0-3.823 0 1.817 1.817 0 0 0-1.359 1.525 13.949 13.949 0 0 0 0 4.061c.071.384.26.736.539 1.005.08-.012.16-.029.24-.05.31-.057.602-.182.859-.366a2.49 2.49 0 0 0 .668-.61c.124-.144.221-.31.286-.49l-.382-.183a.2.2 0 0 1 0-.366l1.336-.672a.186.186 0 0 1 .186-.006.19.19 0 0 1 .1.159l.255 1.405a.205.205 0 0 1-.08.193.2.2 0 0 1-.207.02l-.35-.152c-.031.03-.031.091-.063.122a2.616 2.616 0 0 1-.318.488 3.772 3.772 0 0 1-.922.794c-.155.097-.318.18-.488.246 1.534.185 3.084.18 4.616-.012a1.612 1.612 0 0 0 1.271-1.28H9.75z"/>
        </g>
        <g fill="#000" fill-rule="nonzero">
            <path d="M17.528 3.77h2.022v.676h.029a3.34 3.34 0 0 1 2.435-.892c2.17.04 3.911 1.828 3.915 4.023.004 2.196-1.73 3.99-3.901 4.038a3.628 3.628 0 0 1-2.364-.806h-.028v3.829h-2.108V3.77zm4.158 1.67c-1.11 0-2.05.791-2.05 1.655v.964c0 .921.911 1.684 2.064 1.684a2.14 2.14 0 0 0 2.122-2.159 2.14 2.14 0 0 0-2.136-2.145zM29.902 6.85c1.381-.187 1.794-.389 1.794-.777 0-.504-.527-.806-1.338-.806a1.781 1.781 0 0 0-1.88 1.367l-1.993-.417c.284-1.555 1.865-2.663 3.816-2.663 2.207 0 3.574 1.137 3.574 2.993V11.4h-1.894v-.835h-.029a3.098 3.098 0 0 1-2.549 1.051c-1.665 0-2.818-.921-2.818-2.275 0-1.425.939-2.159 3.317-2.49zm1.965.806h-.028c-.186.274-.584.432-1.61.62-1.238.23-1.68.474-1.68.92 0 .461.37.663 1.168.663 1.21 0 2.15-.562 2.15-1.296v-.907zM37.691 10.982L34.203 3.77h2.32l2.293 4.98h.029l2.264-4.98h2.335l-5.226 10.868h-2.32zM44.142.89h2.107V11.4h-2.107zM50.791 6.85c1.382-.187 1.795-.389 1.795-.777 0-.504-.527-.806-1.339-.806a1.781 1.781 0 0 0-1.88 1.367l-1.993-.417c.285-1.555 1.865-2.663 3.816-2.663 2.207 0 3.574 1.137 3.574 2.993V11.4H52.87v-.835h-.028a3.098 3.098 0 0 1-2.55 1.051c-1.665 0-2.818-.921-2.818-2.275 0-1.425.94-2.159 3.317-2.49zm1.965.806h-.028c-.185.274-.584.432-1.609.62-1.24.23-1.68.474-1.68.92 0 .461.37.663 1.167.663 1.21 0 2.15-.562 2.15-1.296v-.907zM59.221 5.583v3.225c0 .475.157.619.77.619h1.38v1.972h-1.594c-1.894 0-2.663-.748-2.663-2.462V5.583h-1.78V3.77h1.78V1.855h2.107V3.77h2.435v1.813h-2.435zM66.185 3.554A3.882 3.882 0 0 1 69.13 4.69c.78.781 1.2 1.857 1.155 2.966v.605h-6.123c.071.993.883 1.626 2.136 1.626A2.992 2.992 0 0 0 68.62 8.75l1.31 1.325a4.592 4.592 0 0 1-3.616 1.54c-2.635 0-4.23-1.598-4.23-4.016a3.982 3.982 0 0 1 1.181-2.924 3.893 3.893 0 0 1 2.92-1.121zm2.05 3.21c-.1-.907-.883-1.483-2.008-1.483-1.14 0-1.922.576-2.036 1.482h4.044zM71.41 3.77h1.98v.733h.028a2.902 2.902 0 0 1 2.221-.877c.42.008.837.076 1.239.201l-.442 1.915a4.277 4.277 0 0 0-1.096-.159c-1.154 0-1.823.777-1.823 2.332V11.4H71.41v-7.63z"/>
        </g>
    </g>
</svg>
